HIERARCHY
ROOT Hips
{
	OFFSET -0.001795 -0.223333 0.028219
	CHANNELS 6 Xposition Yposition Zposition Zrotation Yrotation Xrotation
	JOINT LeftUpLeg
	{
		OFFSET 0.069520 -0.091406 -0.006815
		CHANNELS 3 Zrotation Yrotation Xrotation
		JOINT LeftLeg
		{
			OFFSET 0.034277 -0.375199 -0.004496
			CHANNELS 3 Zrotation Yrotation Xrotation
			JOINT LeftFoot
			{
				OFFSET -0.013596 -0.397961 -0.043693
				CHANNELS 3 Zrotation Yrotation Xrotation
				JOINT LeftToe
				{
					OFFSET 0.026358 -0.055791 0.119288
					CHANNELS 3 Zrotation Yrotation Xrotation
					End Site
					{
						OFFSET 0.000000 0.000000 0.000000
					}
				}
			}
		}
	}
	JOINT RightUpLeg
	{
		OFFSET -0.067670 -0.090522 -0.004320
		CHANNELS 3 Zrotation Yrotation Xrotation
		JOINT RightLeg
		{
			OFFSET -0.038290 -0.382569 -0.008850
			CHANNELS 3 Zrotation Yrotation Xrotation
			JOINT RightFoot
			{
				OFFSET 0.015774 -0.398415 -0.042312
				CHANNELS 3 Zrotation Yrotation Xrotation
				JOINT RightToe
				{
					OFFSET -0.025372 -0.048144 0.123348
					CHANNELS 3 Zrotation Yrotation Xrotation
					End Site
					{
						OFFSET 0.000000 0.000000 0.000000
					}
				}
			}
		}
	}
	JOINT Spine
	{
		OFFSET -0.002533 0.108963 -0.026696
		CHANNELS 3 Zrotation Yrotation Xrotation
		JOINT Spine1
		{
			OFFSET 0.005487 0.135180 0.001092
			CHANNELS 3 Zrotation Yrotation Xrotation
			JOINT Spine2
			{
				OFFSET 0.001457 0.052922 0.025425
				CHANNELS 3 Zrotation Yrotation Xrotation
				JOINT Neck
				{
					OFFSET -0.002778 0.213870 -0.042857
					CHANNELS 3 Zrotation Yrotation Xrotation
					JOINT Head
					{
						OFFSET 0.005152 0.064970 0.051349
						CHANNELS 3 Zrotation Yrotation Xrotation
						End Site
						{
							OFFSET 0.000000 0.000000 0.000000
						}
					}
				}
				JOINT LeftShoulder
				{
					OFFSET 0.078845 0.121749 -0.034090
					CHANNELS 3 Zrotation Yrotation Xrotation
					JOINT LeftArm
					{
						OFFSET 0.090977 0.030469 -0.008868
						CHANNELS 3 Zrotation Yrotation Xrotation
						JOINT LeftForeArm
						{
							OFFSET 0.259612 -0.012772 -0.027456
							CHANNELS 3 Zrotation Yrotation Xrotation
							JOINT LeftHand
							{
								OFFSET 0.249234 0.008986 -0.001171
								CHANNELS 3 Zrotation Yrotation Xrotation
								End Site
								{
									OFFSET 0.000000 0.000000 0.000000
								}
							}
						}
					}
				}
				JOINT RightShoulder
				{
					OFFSET -0.081759 0.118833 -0.038615
					CHANNELS 3 Zrotation Yrotation Xrotation
					JOINT RightArm
					{
						OFFSET -0.096012 0.032551 -0.009143
						CHANNELS 3 Zrotation Yrotation Xrotation
						JOINT RightForeArm
						{
							OFFSET -0.253742 -0.013329 -0.021401
							CHANNELS 3 Zrotation Yrotation Xrotation
							JOINT RightHand
							{
								OFFSET -0.255298 0.007772 -0.005559
								CHANNELS 3 Zrotation Yrotation Xrotation
								End Site
								{
									OFFSET 0.000000 0.000000 0.000000
								}
							}
						}
					}
				}
			}
		}
	}
}
MOTION
Frames: 11
Frame Time: 0.050000
0.000000 0.019514 0.000000 15.667012 35.213824 -63.995467 100.795316 -5.607022 -23.270703 -15.268933 -24.720720 119.976149 23.257930 -23.524146 -94.120506 0.000000 0.000000 0.000000 -178.144026 -52.878609 -20.289361 -92.986247 46.927757 6.439814 -8.285481 -24.581275 -110.184327 0.000000 0.000000 0.000000 157.931494 -12.149770 -14.402010 7.576006 -13.685164 135.389729 149.895021 26.209857 160.134104 -5.493380 6.956346 115.574590 0.000000 0.000000 0.000000 -49.773982 -36.505707 -59.099009 61.029353 -11.152425 7.167511 -154.932056 6.918468 117.630611 0.000000 0.000000 0.000000 28.767111 -9.295449 67.482505 -18.787352 -33.090998 6.796474 -172.025230 5.437806 -98.005083 0.000000 0.000000 0.000000
0.000316 0.011066 0.000604 11.927691 27.159575 -70.863583 106.208393 -1.966400 -23.080614 -5.383113 -31.319930 111.401960 28.651262 -25.543401 -102.291689 0.000000 0.000000 0.000000 165.292656 16.536256 -14.808842 18.777299 -8.660237 95.844843 -13.953350 -5.168524 -104.573737 0.000000 0.000000 0.000000 149.592396 13.501169 -19.356910 -13.733524 37.942878 122.351994 -150.194332 -51.113812 135.386994 17.585818 -21.738069 100.538663 0.000000 0.000000 0.000000 -56.304722 -9.953561 60.423939 9.766090 37.705796 -2.271659 -178.128132 -37.636907 114.339098 0.000000 0.000000 0.000000 33.966831 32.960828 -33.563475 -64.076981 5.484941 -6.217226 179.793078 8.563352 -151.192609 0.000000 0.000000 0.000000
0.001502 0.008828 0.002108 11.645172 24.037704 -74.232819 95.810593 10.303496 -33.185330 -5.992640 -32.846572 126.972357 23.397332 -18.013850 -98.238628 0.000000 0.000000 0.000000 7.650583 29.907510 -150.109791 97.682150 47.391094 -48.846644 -8.550107 -9.653791 -92.002280 0.000000 0.000000 0.000000 119.960146 44.508445 -40.167544 -17.416535 37.898789 128.868781 -66.261278 -63.953389 62.610401 6.345179 -11.946454 101.521428 0.000000 0.000000 0.000000 -54.325571 -13.346010 39.032333 24.100091 29.190554 8.588892 -169.477773 -39.412457 96.949948 0.000000 0.000000 0.000000 28.398758 19.415818 -0.791996 -27.369469 -3.510455 2.215324 -174.978358 10.683741 -101.071657 0.000000 0.000000 0.000000
0.002849 0.007440 0.006577 10.995839 21.172770 -75.466537 97.601262 12.858390 -34.828524 -10.603571 -18.764340 129.064985 21.760691 -18.158750 -94.810099 0.000000 0.000000 0.000000 16.280217 38.413661 -139.701698 118.656612 35.204881 -31.844232 -10.881683 -7.373730 -95.463839 0.000000 0.000000 0.000000 107.067341 48.301966 -49.668618 -32.963078 57.208516 111.463989 -24.739549 -37.976708 29.591992 2.677277 -5.231831 90.295465 0.000000 0.000000 0.000000 -51.122265 -19.004170 29.356346 22.182620 24.988865 9.458308 -168.585032 -37.179820 118.114099 0.000000 0.000000 0.000000 22.837715 13.830479 7.894811 -8.828186 4.857967 4.662956 -169.199875 15.044902 -102.567767 0.000000 0.000000 0.000000
0.004135 0.012371 0.012561 10.367854 18.738651 -78.712871 86.248398 18.424572 -42.962838 -9.410465 -25.904827 137.847081 22.970503 -23.318640 -94.485247 0.000000 0.000000 0.000000 5.648338 13.002749 -130.219248 89.371547 58.960967 -74.067393 -10.052526 -8.060975 -86.258536 0.000000 0.000000 0.000000 73.751120 48.255206 -71.537458 -34.388205 59.409031 107.629601 -2.259498 -20.535253 18.192527 0.729032 -0.569305 77.792567 0.000000 0.000000 0.000000 -47.489362 -17.236822 18.403223 17.300781 16.408333 6.411877 -172.463636 -40.250392 147.522507 0.000000 0.000000 0.000000 9.620848 9.814114 6.257768 12.865699 18.680874 1.339089 -163.034729 18.341575 -89.046527 0.000000 0.000000 0.000000
0.004668 0.013963 0.018277 9.369068 19.982446 -80.162745 83.277240 19.180099 -47.479259 -12.112198 -13.046497 140.103853 20.641559 -27.070731 -88.190952 0.000000 0.000000 0.000000 6.887002 11.809461 -124.670933 71.368793 60.644864 -93.529872 -13.807021 -0.968971 -86.307717 0.000000 0.000000 0.000000 58.704312 42.982095 -81.754918 -38.770986 63.316823 102.344212 5.314546 -7.134608 16.918626 -2.940375 -1.768640 73.384250 0.000000 0.000000 0.000000 -44.121950 -18.736393 13.000334 9.925539 13.520238 3.336579 179.342950 -38.560597 -178.755377 0.000000 0.000000 0.000000 10.953409 6.174173 4.781143 15.093643 24.028567 1.132813 -163.638046 19.704237 -87.564108 0.000000 0.000000 0.000000
0.005129 0.021619 0.022898 8.381449 18.162548 -81.255212 71.041918 20.969075 -55.938056 -9.646014 -23.730795 145.155179 23.761992 -43.295416 -85.347532 0.000000 0.000000 0.000000 2.543122 5.254703 -116.424906 35.164242 55.217199 -135.038784 -9.563718 -6.163706 -73.041856 0.000000 0.000000 0.000000 43.499580 36.289506 -88.758679 -28.697649 54.816751 110.931218 7.440474 -2.931505 10.077328 -3.415339 0.050397 65.670198 0.000000 0.000000 0.000000 -38.389571 -16.852590 9.045567 5.175128 9.365111 1.488140 175.013294 -37.245671 -163.282003 0.000000 0.000000 0.000000 8.220613 5.600772 3.430316 22.904434 27.452036 1.267580 -161.930725 23.347109 -93.005919 0.000000 0.000000 0.000000
0.005414 0.024198 0.027244 6.820290 18.429520 -80.722528 76.068090 22.536125 -58.006864 -8.091994 -24.535884 146.017557 29.489421 -47.065795 -92.500534 0.000000 0.000000 0.000000 1.834157 3.478716 -116.959740 12.722978 29.235514 -155.361634 -17.848559 -0.251784 -83.502324 0.000000 0.000000 0.000000 36.975309 32.689030 -97.284401 -34.780509 61.132891 102.363552 10.808858 8.828786 14.005638 -7.316837 -0.506593 66.959359 0.000000 0.000000 0.000000 -36.176386 -18.613688 6.497376 4.662680 7.954697 1.767340 168.726582 -29.072502 -133.158090 0.000000 0.000000 0.000000 10.062180 6.791978 4.220681 20.581445 29.444474 1.069831 -158.378943 22.476932 -72.472254 0.000000 0.000000 0.000000
0.005456 0.023448 0.031510 5.988556 16.927796 -80.623671 85.931715 24.883271 -55.730323 -5.286755 -31.339576 142.367963 44.444438 -46.098849 -114.891504 0.000000 0.000000 0.000000 -0.472557 0.668510 -124.203829 5.263558 9.546590 -157.323478 -11.949835 -12.043895 -98.845103 0.000000 0.000000 0.000000 34.039617 33.635730 -104.184436 -35.253588 66.130883 103.822666 13.704221 16.025171 14.706606 -9.088801 6.412289 70.577244 0.000000 0.000000 0.000000 -32.643671 -20.149693 5.529592 3.218681 4.535969 1.600396 168.580517 -19.809401 -113.094568 0.000000 0.000000 0.000000 11.743132 8.305075 4.520865 15.883417 27.566250 0.292470 -155.566891 21.115982 -63.031238 0.000000 0.000000 0.000000
0.005303 0.018173 0.034499 5.187178 14.879659 -81.335620 97.925636 24.706959 -48.855812 -2.671326 -34.424620 135.215241 39.760259 -30.849081 -118.672500 0.000000 0.000000 0.000000 -3.190270 -3.258503 -124.308189 -5.908631 -23.413789 -155.295638 -13.832895 -11.562433 -85.802821 0.000000 0.000000 0.000000 27.145657 30.543724 -112.015895 -26.321195 62.342736 113.306643 12.459072 19.322717 14.341939 -8.982147 7.506752 63.711950 0.000000 0.000000 0.000000 -26.572797 -21.416382 5.569755 5.612785 1.220294 2.177738 165.256332 -13.656681 -82.254916 0.000000 0.000000 0.000000 7.676031 9.953057 3.627282 16.755899 26.778828 0.441926 -149.214782 21.634932 -53.865866 0.000000 0.000000 0.000000
0.005167 0.011494 0.034529 4.723954 12.092848 -82.861655 113.120178 24.190909 -42.463318 6.034391 -39.388663 115.618585 30.235239 -10.450814 -120.742232 0.000000 0.000000 0.000000 -8.669125 -11.318557 -130.442910 -29.587455 -51.221975 -132.516062 -11.284939 -20.306561 -91.863978 0.000000 0.000000 0.000000 22.583446 30.041153 -120.515310 -24.013553 65.430434 119.562204 15.121056 26.535062 16.310235 -11.717640 9.553124 78.620757 0.000000 0.000000 0.000000 -26.540163 -22.910976 6.338857 11.638065 2.468170 3.579880 167.669412 -12.582537 -87.173902 0.000000 0.000000 0.000000 12.627742 11.172222 5.730327 4.087318 22.826755 0.142282 -147.411254 17.623065 -48.509361 0.000000 0.000000 0.000000
